<?xml version="1.0" encoding="UTF-8" standalone="no"?>
<svg
   data-name="Layer 1"
   viewBox="0 0 65.850418 86.488281"
   x="0px"
   y="0px"
   version="1.1"
   id="svg2"
   xml:space="preserve"
   width="65.850418"
   height="86.488281"
   xmlns:xlink="http://www.w3.org/1999/xlink"
   xmlns="http://www.w3.org/2000/svg"
   xmlns:svg="http://www.w3.org/2000/svg"><defs
     id="defs2"><linearGradient
       id="linearGradient2"><stop
         style="stop-color:#ce4b00;stop-opacity:1;"
         offset="0"
         id="stop4" /><stop
         style="stop-color:#ff6100;stop-opacity:1;"
         offset="0.5"
         id="stop2" /><stop
         style="stop-color:#ce4b00;stop-opacity:1;"
         offset="1"
         id="stop3" /></linearGradient><linearGradient
       xlink:href="#linearGradient2"
       id="linearGradient4"
       gradientUnits="userSpaceOnUse"
       x1="12.696181"
       y1="44.172131"
       x2="77.235107"
       y2="44.172131"
       gradientTransform="translate(-12.021314,-2.254932)" /></defs><path
     id="path4"
     style="fill:url(#linearGradient4);fill-opacity:1;stroke-width:0.952563"
     d="m 34.330844,0 -1.050781,1.154297 -0.269531,0.167969 -0.359376,0.02148 -0.171874,-0.375 -0.185547,-0.0625 -0.132813,0.07031 0.28125,1.029297 0.296875,0.773437 0.271485,0.708985 L 32.836703,3.6289 33.203891,5.304681 33.051547,5.255851 31.64725,2.562491 31.72928,2.39257 31.551545,2.34179 30.264436,0.314446 30.024201,0.429681 32.727326,5.142572 32.711696,5.457025 31.615993,6.187493 30.965603,5.158196 32.157009,4.564446 31.813259,3.960931 30.442165,4.646478 30.410915,4.5039 29.514431,3.318353 27.782009,4.011712 26.953884,2.705072 28.086696,2.09179 27.959743,1.974603 l -1.93164,0.849609 0.222656,0.320313 0.103516,3.865234 0.335937,-0.06836 0.232422,0.171875 2.556641,4.824218 -0.148438,0.07227 -0.857422,0.03516 -0.11914,0.126953 0.205078,0.150391 -0.177735,0.255859 0.322266,0.246094 1.875,0.81836 0.341797,1.136718 -0.134766,0.111328 -1.65625,-0.757812 -0.220703,0.326172 1.119141,1.480468 -0.357422,0.277344 -0.416016,0.257813 -0.576172,-0.792969 -0.08984,0.148438 0.01758,0.490234 -0.832032,-0.111328 c 1.177283,1.015703 2.259497,2.140204 3.339844,3.257812 1.298214,1.364208 2.363633,3.025034 2.691406,4.90625 0.403202,2.016679 0.746263,4.049481 1.322266,6.027344 0.431971,1.61773 1.129629,3.143582 1.859375,4.644531 0.374611,0.68075 0.544357,1.486259 1.091797,2.060547 0.971926,0.968279 2.340367,1.351113 3.611328,1.757813 1.330246,0.430035 2.754592,0.919111 3.667969,2.039062 0.639975,0.718313 0.783775,1.690967 1.08789,2.568359 0.261963,0.622701 0.60473,1.245119 0.5625,1.945313 0.02142,1.195355 -0.858016,2.305839 -2.013672,2.589844 0.785222,0.83738 1.571487,1.675954 2.396485,2.474609 1.302139,1.316467 2.813802,2.400902 4.121094,3.710938 1.655274,1.610092 2.499727,3.819144 3.205078,5.96875 0.842345,2.28062 1.294537,4.673314 1.611328,7.078125 4.832838,-6.139669 7.822685,-12.692128 8.9375,-19.623047 0.784177,-4.881744 0.609392,-17.249933 0.435547,-28.263672 l -3.373047,4.216797 -1.849609,-2.265625 -0.169922,-0.04687 -0.390625,-0.28711 -1.195313,-1.439453 -0.714844,0.847656 0.34375,0.603516 -1.617187,2.222656 0.326172,0.21875 -5.361328,8.38086 -0.263672,-0.242188 -0.347657,0.357422 -1.644531,-0.810547 -0.234375,-0.205078 0.316406,-1.566406 0.167969,-0.191406 0.25586,-0.07617 0.267578,0.201172 0.11914,0.201171 -0.210937,0.867188 0.753906,0.296875 0.771484,-1.15625 -0.04102,-0.462891 0.15625,-0.287109 -1.117188,-0.488281 0.291016,-0.417969 0.332031,-1.199219 -0.404297,-0.03125 1.455079,-5.914062 0.726569,-1.580085 -1.216797,-2.019532 -1.978515,-0.708984 -0.01367,0.568359 -0.158204,0.28711 -0.02734,0.4375 -0.166021,0.207031 -0.251953,0.109375 -0.34375,-0.162109 -0.398438,-0.259766 -0.427734,0.216797 -0.546875,0.01758 -0.683594,-0.0918 -0.490234,-0.05469 -0.966797,-0.601563 -0.240234,-0.34375 -0.314453,-0.787109 -0.208985,-0.496094 0.07031,-0.582031 0.130859,-0.546875 -0.002,-0.328125 -0.220703,-0.05859 -0.175781,0.109375 -0.271485,0.611328 -0.326172,0.789063 -0.24414,0.412109 -0.265625,0.275391 -0.314453,0.05664 -0.330078,-0.01367 -0.351563,-0.224609 -0.121094,-0.291016 0.02539,-0.289062 -0.246094,-0.246094 -0.197266,-0.691406 -0.5,0.158203 -0.912109,-3.570312 -1.685547,-3.496094 -0.582031,-2.234375 -0.964844,0.109375 0.02344,0.449218 -1.169922,-0.002 0.0039,0.185547 1.169922,-0.02539 -0.01563,2.314453 -0.697266,0.0078 -0.002,0.13086 0.697266,0.01172 v 2.347657 l -0.978516,0.05664 -0.125,-0.140625 -1.113174,0.0313 -0.0625,-1.429687 -0.273438,-0.146485 -0.0078,-0.697265 0.888672,-0.07031 -0.0039,-0.115234 -0.859375,-0.03906 0.02734,-1.90625 1.19336,-0.291015 -0.0059,-0.238281 -1.207031,-0.03516 -0.01953,-1.039062 0.169922,-0.248047 0.158203,-0.04883 0.02148,-0.191406 0.09766,-0.322266 -0.07031,-2.042969 -0.527344,0.285156 -0.814453,-0.939453 0.902344,-1.005859 z m -25.1640622,17.837891 0.04883,0.142578 0.126953,0.191406 0.351562,0.226563 1.9472662,1.261719 0.326172,0.367187 -0.0957,0.09961 0.167968,0.105469 0.3125,0.78711 -0.662109,0.25 -0.195313,0.169921 -0.445312,-0.01953 0.0332,0.398438 0.5625,-0.125 0.128906,0.134765 0.673829,-0.375 0.736328,1.603516 -1.207032,0.833984 -0.111328,0.650391 -0.367187,-0.05859 -0.109375,-0.177734 -0.115235,0.07031 0.08398,0.410157 -0.615235,0.0078 0.0039,-0.115234 0.224609,-0.279297 -0.25,-0.128906 -0.8242192,-0.175782 -0.08594,-0.113281 0.3398432,-0.199219 -0.7578122,-0.49414 0.6445312,-0.888672 -0.03711,-0.119141 -0.3964842,0.06641 -0.03711,-0.11914 0.367188,-0.416016 0.9765622,0.002 -0.07422,-0.458984 -0.542968,-0.0078 -0.19336,0.183594 -0.1484372,-0.08789 0.05469,-0.179688 -0.1914062,0.05469 -0.08984,-0.07227 0.02148,-0.191406 0.09375,-0.117188 -0.123047,-0.07031 0.0332,-1.69336 -0.367188,0.08789 -0.822265,3.369141 0.328125,0.08789 -1.554688,6.753906 0.289063,0.08398 0.345703,0.175781 0.287109,0.306641 0.109375,0.251953 -0.0039,0.5 -0.25,0.363281 -0.474609,-0.07227 -0.59375,-0.183594 -0.111329,0.265625 -1.798828,-0.875 -1.949218,-1.736328 -0.175782,0.271484 0.125,0.25 -0.132812,0.07422 -0.207031,-0.332032 -1.40625,-1.728515 -1.25976596,0.970703 -0.117187,0.08008 v 0.002 c -0.04823,8.901148 0.05052,18.597531 0.691406,21.292969 3.39177096,14.29 14.18954716,26.755641 32.09570316,37.056641 4.995555,-2.866754 9.430363,-5.876458 13.300791,-9.019627 -0.07332,-0.125318 -0.142075,-0.251924 -0.205078,-0.382812 -0.296297,-0.720156 -0.635088,-1.421289 -1.033203,-2.091797 -0.661741,-1.30314 -1.129137,-2.697818 -1.75,-4.021484 -0.721505,-1.425321 -1.092541,-3.027342 -2.039063,-4.333985 -0.700743,-0.814135 -1.340326,-1.681824 -1.875,-2.615234 -0.638177,-0.936871 -1.101336,-1.940149 -1.71289,-2.873047 -1.807926,-2.379516 -3.840963,-4.577749 -5.679688,-6.933594 -0.574958,-0.636983 -0.970031,-1.458163 -1.707031,-1.93164 -0.882326,-0.2925 -1.802947,0.0972 -2.638672,0.376953 -1.285016,0.35817 -2.293658,1.264217 -3.369141,2.003906 -1.098624,0.831312 -2.522201,1.378888 -3.90625,1.052734 -1.008694,-0.287361 -1.919521,-0.854257 -2.773437,-1.451171 -1.205778,-0.897817 -2.421247,-1.887904 -3.109375,-3.257813 -0.942147,-1.739654 -0.933957,-3.769105 -0.966797,-5.693359 -0.09738,-1.031754 0.125686,-2.140273 0.84375,-2.921875 0.747695,-0.864951 1.950314,-1.164974 3.054688,-1.042969 1.591012,0.183793 3.19682,0.264889 4.798828,0.224609 0.364429,-0.02336 0.887143,-0.01624 1.060547,-0.40039 0.201995,-0.937434 -0.388187,-1.788156 -0.75586,-2.603516 -0.59936,-1.034303 -0.812315,-2.245848 -1.451172,-3.257813 -0.675048,-1.126736 -0.882305,-2.438236 -1.330078,-3.65625 -0.50579,-1.530253 -1.232276,-2.978577 -2.097656,-4.335937 -0.509606,-0.948785 -1.229835,-1.768068 -1.685547,-2.746094 -0.25521,-0.719783 -0.562591,-1.429885 -1.052734,-2.02539 -0.804836,-1.014079 -1.687062,-1.966212 -2.478516,-2.992188 -0.110442,-0.140821 -0.220915,-0.281445 -0.332031,-0.421875 v 0.0098 l -0.150391,0.130859 -1.7988282,-1.1875 -0.363281,-0.173828 z" /><path
     id="path47"
     style="fill:#ce4b00;fill-opacity:1;stroke-width:2.07812"
     d="m 6.7661738,3.128115 c -0.827084,0.02649 -1.449316,0.718766 -1.691559,1.463045 -0.44493,1.221779 -0.105137,2.586173 0.568596,3.656052 0.31819,0.525649 0.407961,1.168392 0.841276,1.627903 0.451615,0.466098 0.459153,1.164482 0.826481,1.684461 0.288395,0.493941 0.833932,0.758176 1.103528,1.269447 0.630782,1.086775 1.364231,2.107417 2.1292422,3.103045 1.25325,1.620039 2.513681,3.236544 3.835382,4.801308 0.83952,0.943905 1.699174,1.926703 2.095814,3.151244 0.269637,0.81043 0.836455,1.457848 1.278364,2.173567 0.286958,0.466401 0.622841,1.037147 0.930018,1.543143 1.090425,1.774727 1.79115,3.756972 2.348157,5.754787 0.20501,0.74418 0.574719,1.42214 0.969586,2.078866 0.40201,0.880481 0.645337,1.827751 1.121049,2.676751 0.48731,1.012524 1.152907,2.116773 0.85242,3.283092 -0.181843,0.798569 -1.08965,1.072814 -1.811887,1.08696 -1.320675,0.05173 -2.643891,-0.02785 -3.961669,-0.107056 -0.998858,-0.125117 -2.15069,-0.340623 -3.013963,0.326693 -0.723157,0.522216 -1.028293,1.449739 -0.950005,2.31542 0.03511,1.326699 1.45e-4,2.672234 0.284735,3.975843 0.285339,1.281285 0.955335,2.474925 1.951517,3.337862 1.084724,1.002115 2.307691,1.892678 3.685996,2.441385 1.074238,0.347126 2.231431,-0.0215 3.121554,-0.653813 1.18754,-0.765369 2.239296,-1.788279 3.616044,-2.217081 1.098749,-0.395783 2.316173,-0.869251 3.484987,-0.491061 0.906027,0.423981 1.38781,1.362099 2.014912,2.092023 1.846526,2.369306 3.873552,4.591358 5.719446,6.960592 0.666673,0.957589 1.13271,2.025537 1.794423,2.988151 0.481873,0.808235 0.98697,1.604731 1.618539,2.306435 1.155978,1.322649 1.555591,3.077902 2.310973,4.624615 0.602948,1.292986 1.100318,2.632343 1.682139,3.933622 0.371772,0.686784 0.786237,1.344924 1.056119,2.086507 0.256679,0.623791 0.668386,1.162334 0.999724,1.742638 0.300533,0.746113 0.558019,1.566959 1.224019,2.077672 0.396255,0.489194 0.698525,1.048084 1.106418,1.529853 0.46988,0.816197 1.024951,1.592889 1.764454,2.187621 0.620296,0.501433 1.328649,0.969241 2.12706,1.103289 0.996495,0.123543 1.902828,-0.675836 2.116315,-1.61947 0.596362,-1.919716 0.536688,-3.958601 0.50816,-5.945769 -0.1185,-2.857465 -0.581799,-5.685642 -0.800406,-8.535504 -0.285393,-2.454832 -0.618763,-4.924337 -1.359945,-7.289476 -0.730436,-2.128488 -1.343507,-4.385726 -2.791835,-6.162036 -1.235853,-1.470475 -2.853084,-2.546079 -4.214797,-3.889509 -1.315219,-1.21952 -2.517772,-2.551884 -3.746644,-3.855542 -0.228645,-0.220146 -0.464651,-0.433555 -0.674053,-0.672627 0.871552,0.152547 1.90639,0.317935 2.63709,-0.312938 0.68519,-0.536452 0.791045,-1.542667 0.42032,-2.294148 C 45.574827,43.861165 45.405457,43.20019 45.218893,42.546399 44.980859,41.708262 44.37378,41.02138 43.608642,40.618748 42.121333,39.756328 40.355979,39.573061 38.847927,38.7519 37.915121,38.290357 37.05592,37.575227 36.691269,36.571634 35.98049,34.943691 35.103733,33.384242 34.574991,31.6811 34.146162,30.388553 33.822062,29.050923 33.547208,27.750794 33.251604,26.442854 33.083634,25.10682 32.742666,23.809911 32.261044,22.12227 31.127675,20.729153 29.897794,19.518763 28.782806,18.366437 27.657376,17.217086 26.377388,16.24477 22.499109,13.115618 18.436574,10.222382 14.316226,7.422682 12.221831,6.032699 10.107053,4.670401 7.9540908,3.373491 7.5832208,3.20252 7.1768338,3.096888 6.7661738,3.128115 Z" /><path
     id="path22"
     d="m 15.785526,9.520397 c 3.706966,2.583531 7.376601,5.23019 10.861216,8.110444 0.770969,0.637256 1.45743,1.352611 2.154374,2.063583 0.765709,0.781103 1.547792,1.538012 2.154397,2.442092 0.543226,0.809646 0.915482,1.702736 1.09161,2.64814 0.641524,3.443639 1.275723,6.955187 2.863544,10.107421 0.406456,0.806914 0.749383,1.640224 1.140215,2.453588 0.697339,1.451277 2.255973,2.24336 3.710786,2.795918 1.316309,0.499943 2.782377,0.721856 3.912633,1.614611 0.728102,0.575104 0.756474,1.550966 1.06445,2.349955 0.216156,0.560806 0.726863,1.226771 0.297601,1.81008 -0.436831,0.593281 -1.342518,0.367416 -2.004109,0.269312 -0.497159,-0.07373 -1.398129,-0.205851 -1.332831,0.537097 0.07164,0.815372 0.920836,1.362702 1.468886,1.969971 1.547852,1.715104 3.16677,3.375117 4.922741,4.882144 1.166912,1.001472 2.429087,1.954639 3.251392,3.281282 0.909055,1.466562 1.407252,3.152758 1.965323,4.782892 0.505106,1.475429 0.793096,3.004615 1.038783,4.537928 0.199956,1.247918 0.357912,2.501334 0.461521,3.759247 0.239922,2.91319 0.749168,5.804224 0.73262,8.732819 -0.0089,1.572563 -0.02784,3.193763 -0.553162,4.696698 -0.227215,0.649956 -0.86968,0.983575 -1.446206,0.67567 -0.813923,-0.318268 -1.514926,-0.922182 -2.0786,-1.581462 -0.410622,-0.480287 -0.652218,-1.075197 -1.064344,-1.558033 -0.198782,-0.232879 -0.354155,-0.493586 -0.519591,-0.747666 -0.08265,-0.126986 -0.169483,-0.253624 -0.26381,-0.371717 -0.09433,-0.118094 -0.195434,-0.228511 -0.314649,-0.328157 -0.621822,-0.519734 -0.669553,-1.469821 -1.148834,-2.126041 -0.41127,-0.563102 -0.715618,-1.179399 -0.968728,-1.818788 -0.27245,-0.68825 -0.74757,-1.28146 -1.023853,-1.972497 -0.523621,-1.309662 -1.069508,-2.608944 -1.657276,-3.8917 -0.550661,-1.201767 -0.930254,-2.485715 -1.638647,-3.609537 -0.49122,-0.779306 -1.190306,-1.408562 -1.657798,-2.208775 -0.47574,-0.814336 -1.025977,-1.582821 -1.463394,-2.419262 -0.353361,-0.675683 -0.743824,-1.316662 -1.219554,-1.90736 -1.92842,-2.394448 -3.987187,-4.684679 -5.858554,-7.125763 -0.595714,-0.777078 -1.255746,-1.664102 -2.26489,-1.908038 -1.415943,-0.342273 -2.920905,0.236297 -4.27623,0.761555 -1.45464,0.563729 -2.526873,1.721385 -3.873657,2.451994 -0.643755,0.349214 -1.413534,0.442712 -2.074329,0.129778 -1.285897,-0.608958 -2.454215,-1.482811 -3.457071,-2.501113 -0.125751,-0.127697 -0.242855,-0.264192 -0.350714,-0.403578 -0.10796,-0.139459 -0.206037,-0.280769 -0.296982,-0.430143 -0.272853,-0.448135 -0.471357,-0.94141 -0.609128,-1.448746 -0.04586,-0.169079 -0.08596,-0.340418 -0.118791,-0.512697 -0.06567,-0.344569 -0.104394,-0.691906 -0.123417,-1.0389 -0.05237,-0.954646 -0.09103,-1.909613 -0.08033,-2.865885 0.0078,-0.701029 0.499,-1.328548 1.175793,-1.43056 0.754649,-0.113723 1.517282,0.114233 2.27698,0.138711 1.254386,0.04042 2.50931,0.142961 3.763874,0.06467 0.703185,-0.04388 1.469267,-0.282896 1.97729,-0.806305 0.548087,-0.564686 0.706347,-1.481275 0.587494,-2.291787 -0.205428,-1.401029 -1.1221,-2.5866 -1.583256,-3.91879 C 23.119249,35.73763 22.904067,35.113226 22.540804,34.554439 21.916541,33.594174 21.746821,32.410753 21.367056,31.33498 20.869934,29.926762 20.320047,28.538116 19.537074,27.265787 18.98349,26.366216 18.477323,25.431381 17.848357,24.581848 17.413459,23.994437 17.259991,23.300938 16.942164,22.668047 16.301093,21.391444 15.252579,20.425165 14.379663,19.328413 12.899044,17.468118 11.383402,15.628011 10.01473,13.682219 9.5063898,12.959522 9.1610318,12.125688 8.5042848,11.518377 c -0.03233,-0.02017 -0.05976,-0.04114 -0.0893,-0.06345 -0.02954,-0.02231 -0.0577,-0.04584 -0.0846,-0.07005 -0.376607,-0.340076 -0.510669,-0.86706 -0.674426,-1.335776 -0.02302,-0.06593 -0.04757,-0.130436 -0.07885,-0.190478 C 7.5458388,9.798563 7.5088488,9.740082 7.4719728,9.684326 7.2499938,9.349266 6.9455298,9.07715 6.8271338,8.678343 6.7810138,8.52326 6.7234228,8.376648 6.6556588,8.232797 6.4523608,7.801212 6.1770238,7.404448 6.0030728,6.957363 5.6788248,6.123964 5.6527198,5.068829 6.2230388,4.334721 c 0.375005,-0.482579 1.057531,-0.333048 1.51101,-0.05193 2.7225602,1.687762 5.4260002,3.407783 8.0516552,5.237712 z"
     style="fill:#a4a4a4;fill-opacity:1;stroke-width:2.0786" /><path
     style="fill:#585858;stroke-width:0.157431"
     d="m 42.819205,44.990201 c 0.171233,0.132373 0.32716,0.285284 0.462732,0.456651 0.436945,0.55223 -0.283292,0.49597 -0.593864,0.2917 -0.524881,-0.345242 -1.492861,-0.07737 -1.4185,0.702708 0.123246,1.293153 1.336955,2.152786 2.140114,3.116854 0.363367,0.436156 0.685234,0.906209 1.190983,1.189451 0.401484,0.224853 0.507188,0.745993 0.864823,1.039561 0.893139,0.733136 1.545727,1.750716 2.549826,2.350687 0.3206,0.191556 0.451644,0.288872 0.558619,0.557979 0.244103,0.614025 0.894799,1.008964 1.366471,1.490284 0.553625,0.564936 1.18412,1.021502 1.578787,1.68678 0.316457,0.533436 0.341704,1.163472 0.646612,1.698126 0.563775,0.988549 0.639495,2.170445 1.106949,3.205058 0.631335,1.397321 0.651129,3.002522 0.89934,4.516528 0.150475,0.917846 0.188342,1.841586 0.288841,2.763341 0.344362,3.158483 0.880164,6.313882 0.793177,9.501136 -0.01597,0.585055 0.109299,1.427405 -0.42529,1.797281 -0.497234,-0.529714 -0.968835,-0.03209 -0.941241,0.585781 0.02929,0.65607 0.308702,0.842145 0.778048,0.947731 0.763405,0.171747 -0.85708,0.981632 -1.315217,0.635398 -0.752714,-0.140606 -0.905119,-0.657886 -1.152001,-1.269255 -0.395919,-0.163247 -0.921342,-0.252567 -0.956741,-0.820475 -0.05334,-0.85574 -0.817705,-0.997928 -1.124698,-1.66175 -0.296421,-0.640947 -0.528361,-1.196404 -1.077418,-1.619482 -0.499636,-0.385009 -0.555413,-1.154526 -0.459338,-1.792889 0.08597,-0.571284 -1.234386,-0.545514 -1.060349,-1.312766 0.09655,-0.425499 0.946766,0.315365 1.415275,0.01054 0.67938,-0.442027 0.841829,0.632194 0.428852,1.053807 -0.464,0.473614 0.335172,1.035109 0.679981,0.480584 0.378368,-0.60861 0.286661,-1.359463 0.347222,-2.040968 0.06644,-0.747599 -0.711177,-1.244111 -0.788748,-1.988086 -0.08384,-0.804275 -0.336435,-1.57961 -0.633603,-2.330112 -0.213411,-0.538976 -0.24424,-1.099573 -0.358221,-1.652773 -0.165929,-0.805263 -0.548018,-1.552017 -0.671454,-2.366055 -0.147917,-0.975564 -0.286211,-2.119634 -1.144059,-2.754655 -1.270592,-0.746056 -2.636561,-1.41325 -3.629152,-2.535179 -0.817975,-0.924554 -1.62684,-1.833398 -2.536576,-2.650192 -0.487997,-0.438139 -0.968027,-0.886987 -1.319411,-1.446667 -0.390426,-0.621865 -0.918829,-1.118406 -1.411208,-1.655598 -0.724214,-0.790124 -1.470247,-1.547241 -2.124496,-2.388715 -0.818381,-1.052567 -1.74147,-2.085737 -2.937397,-2.716208 -0.646291,-0.340705 -1.310909,-0.317303 -1.944631,-0.04114 -1.174432,0.511791 -2.544559,0.265848 -3.79994,0.497561 -0.89606,0.165397 -1.832106,0.624756 -2.732998,0.255698 -0.657611,-0.269397 -1.278155,-0.114056 -1.893207,0.07762 -0.949383,0.295893 -1.974585,0.376729 -2.973305,0.302977 -0.645873,-0.0477 -1.314109,-0.776466 -0.885311,-1.354744 0.915012,-1.233991 2.681904,-1.283378 3.921616,-2.106965 0.692711,-0.460178 1.178712,0.05387 1.85298,-0.03001 1.10376,-0.13732 2.23272,-0.05975 3.323627,-0.317726 2.855161,-0.675151 5.753678,-1.142885 8.587844,-1.904152 1.54728,-0.415592 3.09664,-0.895155 4.70268,-1.013757 0.657229,-0.04853 1.309198,0.161447 1.822931,0.558555 z"
     id="path26" /><path
     style="fill:#585858;stroke-width:0.157431"
     d="m 22.703927,14.780184 c 1.420055,0.93943 2.69272,2.098146 3.887296,3.313797 0.954439,0.971284 1.92157,1.894559 2.891764,2.830891 1.106269,1.067661 1.915191,2.434599 2.240897,3.936432 0.329393,1.518824 0.546718,3.060475 0.809029,4.592677 0.231985,1.355181 0.445015,2.758465 0.196517,4.128061 -0.115488,0.636579 -0.495446,1.339012 -1.21992,1.368853 -0.685662,0.02819 -1.497165,-0.303608 -2.081617,0.204777 -0.409383,0.356192 -0.222525,1.028249 -0.134476,1.526003 0.155059,0.876475 0.376081,1.913763 -0.222392,2.674325 -0.491569,0.624744 -1.323528,0.250541 -1.907942,-3.62e-4 -0.331375,-0.06144 -0.431397,-0.41692 -0.50699,-0.695924 -0.175833,-0.648957 -0.656702,-1.17583 -0.775771,-1.861938 -0.165461,-0.95342 -0.555464,-1.827093 -0.798122,-2.748375 -0.166808,-0.633309 -0.600673,-1.128399 -0.820153,-1.741085 -0.207637,-0.57965 -0.389695,-1.177859 -0.661042,-1.74044 -0.49568,-1.027687 -0.518678,-2.217932 -0.811371,-3.317923 -0.128345,-0.482348 -0.167492,-0.969043 -0.293263,-1.447442 -0.200564,-0.762869 -0.677428,-1.558791 -0.377213,-2.356528 0.22766,-0.605006 0.435742,-1.103753 0.450441,-1.719061 0.0142,-0.594968 0.757404,-1.256563 0.188001,-1.773883 -0.703703,-0.639338 -1.695449,-0.803581 -2.449106,-1.360662 -1.050722,-0.776663 -1.776111,-1.92451 -2.776346,-2.769253 -0.600308,-0.391822 -1.000001,-0.99641 -1.464449,-1.527086 -0.41053,-0.469078 -0.988941,-0.838101 -1.15339,-1.474301 -0.235902,-0.91256 -1.27367,-1.425057 -2.141634,-1.80719 -0.823135,-0.362398 -1.612801,-0.866718 -2.544228,-0.804747 -0.5277082,0.03512 -0.05493,0.325646 0.199462,0.31335 0.491163,-0.02363 1.285762,0.306295 1.292769,0.900167 0.0067,0.565187 -1.439013,-0.07585 -1.58846,0.760362 -0.109215,0.611027 -0.8857352,-0.601837 -1.3141982,-0.870006 0.105061,-0.338071 0.32799,-0.749085 -0.124942,-0.988377 C 8.2975768,9.972408 7.5005488,9.611628 7.7103848,8.977555 7.9173008,8.352222 7.5743378,8.168132 7.1201758,8.050506 6.4566898,7.878666 6.8984598,7.171848 6.9328338,6.733766 6.9773038,6.166854 6.2471418,5.855441 6.3850708,5.240534 c 0.141153,-0.62935 1.040496,-0.657324 1.474875,-0.42691 0.315834,0.167543 -0.333295,0.815406 0.13232,1.084147 0.533223,0.307771 1.032881,0.743817 1.645337,0.866897 0.4926402,0.09907 0.25961,-0.582504 0.7183652,-0.335257 1.607527,0.866353 3.107417,1.919907 4.614133,2.949102 2.596818,1.773799 5.110805,3.666546 7.733835,5.401802 z"
     id="path19" /><path
     d="m 11.418973,7.035942 c -5.21e-4,-3.42e-4 -0.0012,-4.64e-4 -0.0017,-8.02e-4 -0.209445,-0.137339 -0.420261,-0.283301 -0.639883,-0.404845 0.220191,0.121821 0.431674,0.268028 0.641543,0.405668 z M 10.142562,6.381371 c -4.5e-5,-9e-6 -1.49e-4,2.81e-4 -1.83e-4,2.57e-4 -0.04231,-0.0086 -0.08349,-0.01564 -0.123199,-0.0204 0.03971,0.0048 0.08087,0.01143 0.12338,0.02014 z M 7.8009208,4.781355 c -0.0052,-0.0035 -0.01214,-0.008 -0.01852,-0.01161 0.0072,0.0042 0.01241,0.0077 0.01852,0.01161 z m -0.03141,-0.01824 c -0.0074,-0.0039 -0.01319,-0.0066 -0.0211,-0.01014 0.0077,0.0035 0.01355,0.0061 0.0211,0.01014 z m -0.03887,-0.01742 c -0.0061,-0.0021 -0.01415,-0.0052 -0.02123,-0.0074 0.0081,0.003 0.01439,0.0049 0.02123,0.0074 z m -0.03557,-0.01202 c -0.02138,-0.0065 -0.04517,-0.01144 -0.06921,-0.01636 0.02391,0.0047 0.0477,0.0097 0.06921,0.01636 z m -0.09388,-0.02183 c -0.03254,-0.0055 -0.06682,-0.0097 -0.102713,-0.01262 0.03596,0.0029 0.06998,0.007 0.102713,0.01262 z m 1.727728,1.722447 c -0.03937,0.0095 -0.07737,0.01846 -0.114977,0.02581 0.03741,-0.0074 0.07561,-0.01634 0.114977,-0.02581 z m -2.4454,-1.697119 c -0.0036,0.0015 -0.0074,0.0032 -0.01098,0.0047 -0.02005,0.0031 -0.04057,0.0065 -0.05897,0.01014 0.02379,-0.0048 0.04469,-0.01014 0.07027,-0.01456 z m -0.121673,0.02483 c -0.0587,0.01335 -0.112145,0.02756 -0.150482,0.04133 0.03838,-0.01383 0.09152,-0.02797 0.150482,-0.04133 z m 2.233049,1.716749 c -0.03574,-0.0024 -0.07193,-0.0082 -0.108092,-0.01833 -2.67e-4,-1.62e-4 -2.41e-4,-1.99e-4 -5.08e-4,-3.61e-4 0.03649,0.01037 0.07243,0.01612 0.1086,0.01869 z m -2.157157,0.102446 c 0.02708,0.05196 0.04426,0.103864 0.05373,0.155851 -0.0095,-0.05195 -0.02663,-0.10391 -0.05373,-0.155851 z m 5.5024192,4.324061 c -0.08573,-0.03006 -0.17201,-0.06905 -0.258932,-0.112298 0.0869,0.04313 0.173312,0.08229 0.258932,0.112298 z m -0.371139,-0.172031 c -0.05546,-0.02997 -0.110936,-0.05919 -0.166677,-0.09127 0.05585,0.03229 0.11116,0.06139 0.166677,0.09127 z M 6.7224648,7.685196 c 0.0045,0.01876 0.0092,0.03593 0.01583,0.05273 -0.0062,-0.01639 -0.01182,-0.03433 -0.01583,-0.05273 z m 0.601938,0.446552 c -0.06458,-0.02574 -0.12939,-0.05116 -0.191617,-0.07806 0.01064,0.003 0.01838,0.0064 0.02856,0.0093 0.0544,0.02284 0.107232,0.04646 0.163069,0.06872 z m 2.8273882,2.092245 c -0.02129,0.01203 -0.03947,0.02326 -0.05574,0.03431 0.0158,-0.01147 0.03393,-0.02263 0.05574,-0.03431 z m -0.106852,0.07646 c -0.0035,0.0039 -0.0068,0.0077 -0.0097,0.01147 0.0029,-0.0038 0.0062,-0.0076 0.0097,-0.01147 z m -0.02426,0.03634 c -4.76e-4,0.0012 -0.0011,0.0026 -0.0015,0.0038 4.75e-4,-0.0012 0.0011,-0.0026 0.0015,-0.0038 z m 1.678062,1.225863 c -0.0048,0.0065 -0.01092,0.01264 -0.01781,0.01789 0.0065,-0.0056 0.01302,-0.01115 0.01781,-0.01789 z m 6.723924,5.144052 c 0.01104,0.0096 0.02068,0.01826 0.03102,0.0274 3.64e-4,3.14e-4 4.62e-4,7.13e-4 8.52e-4,9.9e-4 -0.01095,-0.0097 -0.02124,-0.01891 -0.03192,-0.02829 z m 3.944973,2.980976 c 0.07656,0.05266 0.150493,0.108666 0.219298,0.167543 -0.08509,-0.07295 -0.180724,-0.138861 -0.276833,-0.202303 0.01926,0.01272 0.0384,0.02168 0.05762,0.03482 z m 0.239688,0.186109 c 0.03698,0.03265 0.07186,0.0661 0.104794,0.100492 -0.03295,-0.03438 -0.06783,-0.06783 -0.104794,-0.100492 z m 0.14867,0.147118 c 0.0056,0.0064 0.01127,0.01285 0.01621,0.01917 -0.0056,-0.0065 -0.01115,-0.01302 -0.01621,-0.01917 z m 0.07161,0.09086 c 0.0051,0.0072 0.01018,0.01438 0.01566,0.02209 -0.005,-0.0074 -0.01006,-0.01454 -0.01566,-0.02209 z m -11.878591,-8.39573 c -0.0189,0.01225 -0.03804,0.02483 -0.05704,0.03793 0.01931,-0.01282 0.03849,-0.02546 0.05704,-0.03793 z m 11.948741,8.509344 c 0.01073,0.02114 0.0201,0.04276 0.02881,0.06461 -0.0079,-0.02117 -0.01792,-0.04333 -0.02881,-0.06461 z m 0.03741,0.08767 c 0.0056,0.01724 0.01155,0.03542 0.01632,0.05347 -0.005,-0.01809 -0.01001,-0.0358 -0.01632,-0.05347 z m 0.02188,0.07363 c 0.0061,0.02371 0.0088,0.04687 0.01127,0.07063 -0.0032,-0.0242 -0.0061,-0.04745 -0.01127,-0.07063 z M 8.1184518,9.887855 c 0.02368,0.02014 0.04934,0.03965 0.07891,0.05833 -0.02937,-0.01859 -0.05519,-0.03824 -0.07891,-0.05833 z m 0.627412,0.473322 c 0.03738,0.03854 0.07257,0.07838 0.102462,0.119564 -0.02992,-0.04115 -0.06511,-0.08099 -0.102462,-0.119564 z m 0.102462,0.119564 c 0.02432,0.0336 0.04482,0.0679 0.06288,0.103143 -0.01804,-0.03526 -0.03868,-0.06973 -0.06288,-0.103143 z m 1.9077422,1.374595 c -0.09509,0.07605 -0.189351,0.156684 -0.290772,0.222271 0.101418,-0.06558 0.195695,-0.146235 0.290772,-0.222271 z m 0.770102,0.644111 c 0.003,0.0029 0.0058,0.0061 0.0087,0.0093 -0.0029,-0.003 -0.0057,-0.0063 -0.0087,-0.0093 z m 0.02254,0.0257 c 0.0041,0.005 0.0064,0.0089 0.0103,0.01421 -0.0039,-0.0053 -0.0063,-0.0091 -0.0103,-0.01421 z m 0.02108,0.03206 c 0.0024,0.0038 0.0032,0.0063 0.0055,0.01025 -0.0023,-0.0039 -0.003,-0.0065 -0.0055,-0.01025 z m 0.03482,0.117148 c 0.0013,0.0053 8.7e-4,0.0095 0.0021,0.015 4.73e-4,-0.0043 -7.49e-4,-0.0097 -0.0021,-0.015 z m 0.0023,0.03407 c -3.16e-4,0.01839 1.8e-4,0.03815 -0.0014,0.05825 -8.9e-5,-4.48e-4 -3.43e-4,-6.29e-4 -4.15e-4,-0.0011 0.0013,-0.01974 0.0021,-0.03884 0.0019,-0.05715 z m 11.22614,8.224113 c -1.48e-4,2.8e-4 7.3e-5,4.36e-4 -1.1e-4,6.94e-4 -0.0053,0.008 -0.01094,0.01594 -0.01666,0.02399 0.0057,-0.0082 0.0113,-0.01645 0.01677,-0.02468 z M 10.913432,12.471937 c -0.03286,0.02112 -0.06316,0.04618 -0.09079,0.07466 0.02782,-0.0284 0.05826,-0.05328 0.09079,-0.07466 z m -0.09079,0.07466 c -0.04087,0.04317 -0.07837,0.09236 -0.108374,0.14894 0.03172,-0.05541 0.06748,-0.105736 0.108374,-0.14894 z M 10.37428,12.130729 c -0.047,0.02451 -0.09568,0.04495 -0.146944,0.05968 0.05106,-0.0148 0.1,-0.03523 0.146944,-0.05968 z m -0.16515,0.06484 c -0.02755,0.0065 -0.05409,0.01297 -0.08238,0.01654 0.02831,-0.0036 0.0555,-0.0096 0.08238,-0.01654 z M 8.7648138,11.451885 c 0.005,0.02166 0.01172,0.04272 0.02106,0.06438 -0.0098,-0.02204 -0.01633,-0.04304 -0.02106,-0.06438 z m 0.09225,0.180592 c 0.02836,0.03724 0.06115,0.07435 0.09923,0.110482 -0.0382,-0.03632 -0.07084,-0.07328 -0.09923,-0.110482 z m 2.7059892,2.473335 c 0.100401,0.07796 0.233881,0.292901 0.305065,0.43438 0.292593,0.581593 0.849065,0.934734 1.20637,1.46932 0.595647,0.891187 1.454404,1.556547 2.249063,2.259582 1.213457,1.073556 2.333018,2.268102 3.164834,3.671795 0.675626,1.140117 1.386057,2.257087 2.135928,3.352639 0.328576,0.480027 0.480271,1.042376 0.761712,1.571696 0.343658,0.646346 0.759959,1.268221 0.95834,1.971287 0.152317,0.539834 0.402449,1.055978 0.467033,1.614285 0.06992,0.604304 0.570639,1.758004 -0.03273,1.831397 -0.423692,0.05155 -0.569635,-0.780875 -0.726415,-1.152072 -0.13365,-0.316439 -0.26352,-0.634249 -0.393568,-0.952168 -0.478437,-1.231607 -1.341448,-2.303541 -1.709218,-3.568853 -0.193478,-0.665681 -0.614187,-1.179898 -1.019204,-1.709381 -0.501833,-0.65606 -1.152863,-1.337342 -1.15695,-2.195006 -0.0024,-0.50997 -0.378345,-0.931854 -0.693446,-1.299892 -1.264873,-1.477382 -2.517298,-2.964029 -3.739479,-4.479534 -0.664449,-0.823924 -1.793856,-1.48586 -1.900201,-2.560524 -0.02873,-0.289723 0.03422,-0.327722 0.122824,-0.258996 z m -0.602115,-0.147934 c -0.03057,0.0215 -0.06278,0.03883 -0.09423,0.05187 0.03196,-0.01268 0.06313,-0.03072 0.09423,-0.05187 z M 22.07457,24.503634 c 0.02229,0.09244 0.05605,0.179862 0.08716,0.268615 0.0085,0.02823 0.01482,0.05666 0.02386,0.08485 -0.0429,-0.115111 -0.08174,-0.232355 -0.110993,-0.353459 z m 10.708001,8.735201 c -0.0026,0.02878 -0.0052,0.05752 -0.008,0.08631 0.0015,-0.01293 2.74e-4,-0.02551 9.05e-4,-0.03896 0.0014,-0.01634 0.0048,-0.03183 0.0071,-0.04736 z m -10.228457,-7.0562 c -0.0059,0.147225 9.64e-4,0.29292 0.01367,0.437825 -0.01277,-0.144955 -0.01966,-0.290653 -0.01367,-0.437825 z m 10.165474,7.469734 c -0.0013,0.0054 -0.0026,0.01088 -0.0039,0.01632 0.0013,-0.0054 0.0028,-0.01105 0.0039,-0.01632 z M 22.574334,26.695658 c 0.0069,0.06489 0.02046,0.129104 0.03062,0.193766 -0.01017,-0.06464 -0.02353,-0.128734 -0.03062,-0.193766 z m 9.972496,7.466908 c -0.02269,0.04987 -0.04872,0.09728 -0.07503,0.144713 0.0013,-0.0021 0.0021,-0.0046 0.0033,-0.0068 0.02473,-0.04557 0.04937,-0.09101 0.0716,-0.138096 z m -9.882958,-6.954811 c 0.03411,0.151882 0.08435,0.302139 0.129345,0.452875 -0.04493,-0.150647 -0.09515,-0.300996 -0.129345,-0.452875 z m 20.434113,14.9132 c 0.400207,0.310054 0.691679,0.747164 0.67746,1.266658 -0.01251,0.456407 0.09671,1.915322 -0.335673,1.541095 -0.42856,-0.370921 -0.957412,-0.534044 -1.461408,-0.783363 -0.920251,-0.455215 -1.89588,-0.836184 -2.947806,-0.849334 -0.621944,-0.0078 -1.229957,-0.227112 -1.846371,-0.220271 -0.757556,0.0084 -1.552095,-0.370027 -1.929855,-1.039255 l -0.03274,-0.11039 c 0.02776,-1.063115 0.388635,-3.280635 1.285912,-2.793015 0.322032,0.175005 0.611334,0.531049 0.954692,0.743186 1.513258,0.934971 3.289356,1.275356 4.945732,1.868685 0.175402,0.06284 0.349871,0.147129 0.512642,0.251075 0.06101,0.03902 0.12039,0.08069 0.177497,0.124956 z m -0.31012,0.291129 c -0.239254,-0.171538 -0.897376,-0.138726 -0.499208,0.241272 0.110013,0.104989 0.279556,0.165454 0.427189,0.105884 0.202878,-0.149166 0.180955,-0.269037 0.072,-0.347161 z M 23.739958,30.875199 c 0.07325,0.172881 0.135163,0.349693 0.199028,0.525769 0.01892,0.04802 0.0343,0.09635 0.05347,0.144372 -0.08962,-0.223402 -0.175448,-0.445336 -0.252573,-0.670183 z m 5.697524,4.272971 c -0.0027,0.0032 -0.0051,0.0066 -0.0079,0.01 0.0025,-0.003 0.0045,-0.0063 0.007,-0.0093 2.51e-4,-2.09e-4 5.01e-4,-4.17e-4 8.02e-4,-5.9e-4 z m -0.0624,0.08466 c -0.005,0.0076 -0.01021,0.01544 -0.01501,0.02327 0.0049,-0.0077 0.01,-0.01562 0.01501,-0.02327 z m -0.03802,0.06427 c -0.01705,0.03118 -0.03379,0.06192 -0.04682,0.09461 0.01303,-0.03269 0.02976,-0.06341 0.04682,-0.09461 z m -0.06139,0.128393 c -0.01688,0.0417 -0.03079,0.0846 -0.04175,0.128377 0.0108,-0.04391 0.02537,-0.08631 0.04175,-0.128377 z m -0.04175,0.128377 c -0.01067,0.04372 -0.01898,0.08808 -0.02532,0.132887 0.0064,-0.04486 0.01429,-0.08937 0.02532,-0.132887 z m -0.03024,0.174267 c -0.0028,0.02546 -0.0046,0.05097 -0.0063,0.07664 8.04e-4,-0.02625 0.0033,-0.05132 0.0063,-0.07664 z m 13.436649,9.984804 c -0.09628,-0.02779 -0.194984,-0.05251 -0.293321,-0.07186 0.09885,0.01949 0.196533,0.04387 0.293321,0.07186 z m -0.507217,-0.103137 c -0.03601,-0.0031 -0.07164,-0.0054 -0.10666,-0.006 0.03499,6.38e-4 0.07053,0.0027 0.10666,0.006 z m -0.841179,0.882812 c 0.0016,0.01925 0.0016,0.03833 0.004,0.05754 -0.0019,-0.01891 -0.0025,-0.0384 -0.004,-0.05754 z M 25.461271,35.261843 c 0.003,0.01007 0.0057,0.02065 0.01,0.03156 0.0093,0.07126 0.02048,0.141638 0.0307,0.212669 -0.01182,-0.08206 -0.03002,-0.161952 -0.04064,-0.244259 z m 16.043966,11.908999 c 0.02936,0.05701 0.05775,0.114312 0.09095,0.169855 -0.03304,-0.05542 -0.0616,-0.11284 -0.09095,-0.169855 z M 25.576276,35.953097 c 0.01823,0.0856 0.03976,0.170126 0.06351,0.253701 -0.0237,-0.08364 -0.04516,-0.167916 -0.06351,-0.253701 z m 0.110056,0.415785 c 0.0065,0.01963 0.01455,0.03946 0.0217,0.05918 -0.0067,-0.01929 -0.01495,-0.03925 -0.0217,-0.05918 z m 3.264553,3.124807 c -0.03042,0.02487 -0.06252,0.046 -0.09436,0.06534 0.03183,-0.01968 0.06347,-0.04088 0.09436,-0.06534 z m 16.220012,11.942045 c 0.0206,0.02484 0.04108,0.04984 0.06145,0.07536 -0.01357,-0.01678 -0.02738,-0.02965 -0.04056,-0.04591 -0.0059,-0.0096 -0.01431,-0.01934 -0.02081,-0.02957 z M 28.561029,39.678739 c -0.0054,4.73e-4 -0.0092,0.0021 -0.01449,0.0025 0.0054,-4.73e-4 0.0091,-0.002 0.01449,-0.0025 z m -2.055884,-1.403382 c 0.04842,0.125281 0.09827,0.250426 0.14846,0.375549 4.91e-4,0.0029 0.0029,0.0067 0.0034,0.0096 3.23e-4,0.0012 6.87e-4,0.0022 4.91e-4,0.0029 -0.05192,-0.129325 -0.102557,-0.258853 -0.152606,-0.388306 z m 1.95683,1.420131 c -0.0031,8.3e-4 -0.0081,6.25e-4 -0.01123,0.0015 0.0031,-8.29e-4 0.0081,-6.24e-4 0.01123,-0.0015 z m -0.51722,-0.04499 c -0.03063,-0.0075 -0.06111,-0.01448 -0.09161,-0.02322 0.03042,0.0089 0.0612,0.01579 0.09161,0.02322 z m 20.356584,14.511103 c 0.0033,0.0025 0.0064,0.0053 0.0079,0.0068 -0.0065,-0.0052 -0.01141,-0.0091 -0.01844,-0.01388 0.0035,0.0023 0.0071,0.0044 0.01035,0.007 z m -0.01731,-0.01153 c -0.0071,-0.0044 -0.01277,-0.0071 -0.01953,-0.01056 0.0075,0.0038 0.01319,0.0066 0.01953,0.01056 z m 0.02996,0.02206 c 0.0064,0.0053 0.01082,0.0099 0.01666,0.01566 -0.006,-0.0058 -0.01042,-0.01046 -0.01666,-0.01566 z m -0.05564,-0.03545 c -0.0058,-0.0026 -0.01173,-0.005 -0.0179,-0.0071 0.0061,0.0021 0.01209,0.0045 0.0179,0.0071 z m 0.07925,0.05785 c 0.0028,0.0032 0.0071,0.0079 0.0099,0.01114 -0.0028,-0.0033 -0.007,-0.0081 -0.0099,-0.01114 z M 26.703643,38.825306 c 6.43e-4,0.002 0.0019,0.0044 0.0029,0.0067 4.51e-4,0.0026 0.0012,0.0055 0.0018,0.0082 -0.0015,-0.0051 -0.0034,-0.0096 -0.0032,-0.01347 z m 21.662121,15.403919 c 0.0092,0.01216 0.01806,0.02482 0.02648,0.03845 -0.0082,-0.01351 -0.01744,-0.02642 -0.02648,-0.03845 z m 0.03428,0.05151 c 0.02104,0.03535 0.04031,0.07605 0.05909,0.11817 -0.01873,-0.04218 -0.03791,-0.08265 -0.05909,-0.11817 z M 26.716881,38.8815 c 0.004,0.01587 0.0084,0.03155 0.01372,0.04708 -0.0046,-0.01502 -0.0096,-0.03131 -0.01372,-0.04708 z m 21.42929,15.240531 c -0.008,4.55e-4 -0.01389,0.0016 -0.02222,0.0026 0.0083,-9.63e-4 0.01437,-0.0023 0.02222,-0.0026 z m -0.03651,0.0069 c -0.0093,0.0023 -0.01859,0.0046 -0.02843,0.0077 0.0099,-0.0032 0.0192,-0.0055 0.02843,-0.0077 z M 27.508609,39.507446 c -0.132595,-0.05239 -0.261982,-0.107503 -0.384179,-0.157914 0.121655,0.0502 0.252194,0.105598 0.384179,0.157914 z m -0.764284,-0.541874 c 0.0063,0.01622 0.01374,0.03271 0.0216,0.04855 -0.0087,-0.01641 -0.01497,-0.03205 -0.0216,-0.04855 z M 48.061664,54.14497 c -0.007,0.0027 -0.014,0.0054 -0.02124,0.0084 -1.46e-4,-8.1e-5 -2.43e-4,-1.96e-4 -5.08e-4,-3.61e-4 0.0074,-0.0032 0.01412,-0.0055 0.02124,-0.0084 z M 26.783813,39.047481 c 0.0079,0.01402 0.01657,0.02835 0.02557,0.04188 -0.0085,-0.01317 -0.01752,-0.02774 -0.02557,-0.04188 z m 0.05324,0.08046 c 0.0028,0.0032 0.004,0.0051 0.0069,0.0082 0.0011,0.0021 0.0038,0.0055 0.0049,0.0075 -0.0041,-0.005 -0.0076,-0.01078 -0.01164,-0.01592 z m 21.748608,15.56994 c 0.01298,0.02911 0.02585,0.05799 0.04021,0.08553 -0.01435,-0.02754 -0.02722,-0.05644 -0.04021,-0.08553 z m 0.0534,0.110739 c 0.0068,0.01197 0.0134,0.02278 0.02004,0.03387 -0.0072,-0.01146 -0.01359,-0.02215 -0.02004,-0.03387 z m 0.04232,0.06855 c 0.0076,0.01078 0.01428,0.02009 0.02155,0.02959 -0.008,-0.01027 -0.01459,-0.01929 -0.02155,-0.02959 z m 0.264124,0.190978 c 0.305121,0.303741 0.54896,0.670083 0.849692,0.97487 -0.300718,-0.304769 -0.544585,-0.671144 -0.849692,-0.97487 z m -0.03632,-0.0085 c -0.0044,-0.001 -0.01016,-0.0036 -0.01439,-0.0049 0.0042,0.0013 0.0099,0.004 0.01439,0.0049 z m -0.180963,-0.121692 c 0.0098,0.01131 0.0198,0.02274 0.03046,0.03286 -0.01066,-0.01012 -0.02064,-0.02155 -0.03046,-0.03286 z m 0.14281,0.108353 c -0.0038,-0.0018 -0.0058,-0.0026 -0.0095,-0.0045 0.0038,0.0019 0.0057,0.0027 0.0095,0.0045 z m -0.103999,-0.06752 c 0.0031,0.0028 0.0063,0.0055 0.0094,0.0083 -0.0032,-0.0027 -0.0063,-0.0055 -0.0094,-0.0083 z m 0.07216,0.05204 c -0.0037,-0.002 -0.0073,-0.004 -0.0109,-0.0062 0.0036,0.0022 0.0072,0.0042 0.0109,0.0062 z m 1.083951,1.13302 c 0.04781,0.04289 0.09865,0.08258 0.150093,0.121431 -0.05167,-0.03889 -0.102287,-0.07854 -0.150093,-0.121431 z m 0.260255,0.201232 c -0.01223,-0.0079 -0.02294,-0.01437 -0.03411,-0.02197 0.01035,0.007 0.02276,0.01462 0.03411,0.02197 z M 34.623561,45.828699 c -0.154325,0.03597 -0.308829,0.07158 -0.463296,0.106858 -1.340713,0.288005 -2.682908,0.563275 -4.02432,0.847348 1.496198,-0.316854 2.992666,-0.629349 4.487616,-0.954206 z m 17.261435,13.02184 c 0.09961,0.280832 0.223043,0.552834 0.339436,0.827706 -0.0074,-0.0147 -0.01663,-0.03043 -0.02494,-0.04564 -0.110354,-0.258682 -0.220651,-0.517514 -0.314507,-0.782083 z M 25.739484,42.476298 c 0.178922,0.13605 0.280692,0.411658 0.118254,0.702615 -0.394124,0.70615 -1.257406,0.889403 -1.972695,1.091997 -2.043966,0.578919 -4.232182,0.774028 -6.3086,0.344605 -0.50472,-0.10439 -1.07785,0.08302 -1.530946,-0.149299 -0.151577,-0.07771 -0.180206,-0.286155 -0.05029,-0.4001 0.504483,-0.416109 1.18594,-0.164878 1.769582,-0.129254 2.08422,0.127252 4.18022,0.151075 6.269863,-0.09791 0.585463,-0.06976 0.867269,-0.485759 1.072305,-1.105218 0.127919,-0.386391 0.429813,-0.411501 0.632527,-0.257439 z m 27.36853,19.678742 c 0.06935,0.225745 0.133784,0.45305 0.192047,0.682625 -8.75e-4,-0.0024 -0.0017,-0.0048 -0.0042,-0.0084 -0.05767,-0.226754 -0.120062,-0.451873 -0.188524,-0.674844 z M 33.596047,50.618854 c 0.315949,0.241059 0.616155,0.501225 0.902802,0.775342 -0.573703,-0.548628 -1.201447,-1.040646 -1.902151,-1.437122 3.01e-4,1.15e-4 6e-4,2.33e-4 9.45e-4,2.86e-4 0.350247,0.19824 0.68228,0.420359 0.998435,0.661487 z m -0.525069,-0.165612 c 1.13475,0.908679 1.968534,2.110427 2.856294,3.250776 0.710111,0.912144 2.368512,1.406984 2.327038,2.561288 -0.02002,0.557513 0.522864,0.66486 0.774421,1.236346 0.25871,0.587724 0.576124,1.14131 1.106997,1.528471 0.578491,0.421989 0.844879,1.122251 1.116044,1.755178 0.290989,0.67917 0.862088,1.28576 0.908899,2.021781 0.03299,0.518828 0.644555,0.91688 0.496645,1.39317 -0.182829,0.588562 -0.516782,-0.443598 -0.676044,-0.605559 -0.374851,-0.689758 -0.924638,-1.252165 -1.298725,-1.949853 -1.01572,-1.894406 -2.403953,-3.553093 -3.78549,-5.186644 -1.15366,-1.364105 -2.339262,-2.700336 -3.409841,-4.13443 -0.506255,-0.678152 -1.432173,-1.15751 -1.573628,-1.992411 -0.118508,-0.699531 0.878278,-0.101612 1.157386,0.121892 z m -1.815193,-0.540234 c -0.08426,0.02349 -0.168869,0.04675 -0.253401,0.06739 0.01472,-0.0064 0.03007,-0.01002 0.04617,-0.0151 0.0691,-0.01758 0.138469,-0.03303 0.207226,-0.05229 z M 27.35861,47.407304 c -0.03227,0.0059 -0.06425,0.0147 -0.09676,0.02027 -0.06026,0.0098 -0.120275,0.02322 -0.180734,0.03151 -0.0062,0.0015 -0.01389,0.0016 -0.02005,0.0031 0.09965,-0.01572 0.198591,-0.03655 0.297939,-0.05461 z m 26.769171,19.59802 c 0.0086,0.04633 0.01719,0.09243 0.02588,0.138712 -0.0065,-0.03467 -0.01403,-0.06925 -0.02048,-0.103952 -0.0018,-0.01176 -0.0039,-0.02319 -0.0054,-0.03476 z M 38.947252,56.377817 c 0.132984,0.159864 0.26802,0.317846 0.387647,0.488543 4.89e-4,9.26e-4 0.0012,0.0018 9.65e-4,0.0022 -0.120243,-0.171696 -0.255765,-0.330609 -0.389462,-0.491337 z m 0.583273,0.787088 c 0.08639,0.141828 0.183497,0.274596 0.285067,0.403598 -0.101616,-0.129009 -0.198729,-0.261806 -0.285067,-0.403598 z m 0.364739,0.501693 c 0.05459,0.06564 0.113295,0.127644 0.171184,0.190652 -0.05776,-0.06297 -0.116647,-0.125079 -0.171184,-0.190652 z m 0.446582,0.469297 c 0.157817,0.152188 0.324052,0.297482 0.492908,0.440736 -0.168774,-0.143119 -0.335186,-0.288666 -0.492908,-0.440736 z m 7.078625,6.075017 c 0.06864,0.154969 0.127389,0.312654 0.178933,0.472265 -0.05153,-0.159667 -0.110346,-0.317296 -0.178933,-0.472265 z m 0.178933,0.472265 c 0.05167,0.159822 0.0958,0.321398 0.135152,0.484537 -0.03938,-0.163124 -0.0836,-0.324862 -0.135152,-0.484537 z m 0.135152,0.484537 c 0.07819,0.324189 0.13718,0.653836 0.195364,0.983719 3.49e-4,0.002 9e-6,0.0036 8.6e-4,0.006 -0.05854,-0.331863 -0.117514,-0.663427 -0.196141,-0.98955 z M 22.984019,47.504853 c -0.0279,0.0034 -0.05519,0.0084 -0.08267,0.01444 0.02729,-0.0061 0.05492,-0.01091 0.08267,-0.01444 z m -0.248285,0.06952 c -0.04819,0.02188 -0.0958,0.04943 -0.142828,0.08259 0.04666,-0.03337 0.09465,-0.06072 0.142828,-0.08259 z M 47.98556,66.464794 c 0.0039,0.01604 0.01022,0.03047 0.01374,0.04597 0.01692,0.09247 0.03509,0.184601 0.05349,0.276772 -0.02152,-0.107876 -0.04757,-0.214405 -0.06718,-0.322707 z m 0.149671,0.718904 c 0.01046,0.04377 0.02251,0.08711 0.03382,0.130765 -0.01114,-0.04354 -0.02337,-0.08698 -0.03382,-0.130765 z M 22.030726,49.316249 c 7.32e-4,0.0025 0.0016,0.0049 0.0022,0.0077 -6.48e-4,-0.0026 -0.0013,-0.0053 -0.0022,-0.0077 z m -0.107773,0.01244 c -0.0051,0.0069 -0.0096,0.01407 -0.01375,0.02154 0.0042,-0.0075 0.0087,-0.01471 0.01375,-0.02154 z m 19.280734,14.499573 c 0.08168,0.139836 0.177366,0.269372 0.271071,0.400436 -0.06856,-0.09586 -0.141216,-0.188509 -0.20367,-0.288802 -0.02295,-0.03696 -0.04552,-0.07411 -0.06733,-0.111586 z m 0.427114,0.621442 c 0.08874,0.115193 0.181213,0.227891 0.273907,0.340209 -0.0926,-0.112275 -0.185101,-0.224968 -0.273907,-0.340209 z M 23.412262,51.723248 c 0.125274,0.363073 -0.582701,0.69128 -0.884542,0.910467 -0.532201,0.386505 -1.15887,0.947561 -1.862507,0.720297 -0.775582,-0.250499 -1.408168,-0.790361 -2.059662,-1.258966 -0.632886,-0.455282 -1.24327,-0.971556 -1.661103,-1.638897 -0.183426,-0.374678 -0.637193,-0.743139 -0.582097,-1.161937 0.440319,0.956276 1.477754,1.34902 2.303517,1.897313 0.370192,0.291686 0.745231,0.342132 1.235836,0.275323 0.663453,-0.09034 1.414218,-0.509744 2.005741,-0.189284 0.481466,0.260824 0.914786,0.800356 1.504797,0.445677 z m 18.876952,13.537883 c 0.06052,0.0738 0.12232,0.146882 0.181098,0.221844 -0.05888,-0.07503 -0.120522,-0.147977 -0.181098,-0.221844 z M 19.46509,50.548208 c -0.0192,0.0055 -0.0357,0.01112 -0.05185,0.0152 -6.64e-4,1.09e-4 -0.0015,2.61e-4 -0.0022,3.69e-4 0.01606,-0.0047 0.03481,-0.0092 0.0541,-0.01549 z m 29.975972,21.316611 c 0.06045,0.200225 0.117018,0.401464 0.151189,0.607956 1e-4,6.49e-4 3.52e-4,0.0014 3.6e-4,0.0022 -0.03425,-0.207312 -0.09089,-0.40914 -0.151537,-0.610087 z M 18.570686,50.562126 c 1.99e-4,2.94e-4 4.34e-4,5.02e-4 5.98e-4,8.1e-4 0.01032,0.02926 0.02233,0.05794 0.03589,0.08586 -0.01387,-0.02821 -0.02599,-0.05709 -0.03656,-0.08671 z m 0.09888,0.191708 c 0.01249,0.01831 0.02447,0.03626 0.03819,0.05355 -0.01379,-0.01719 -0.02582,-0.03543 -0.03819,-0.05355 z m 0.337197,0.292007 c -0.05893,-0.02938 -0.11317,-0.06358 -0.161908,-0.102288 0.04874,0.03871 0.103205,0.07294 0.161908,0.102288 z m 30.68017,21.917032 c 0.02546,0.07255 0.05709,0.143223 0.09167,0.212995 -0.03458,-0.06976 -0.0662,-0.14046 -0.09167,-0.212995 z m 0.12942,0.283957 c 0.0234,0.04386 0.04687,0.08764 0.07222,0.130898 -0.02536,-0.04326 -0.04882,-0.08704 -0.07222,-0.130898 z m 0.318204,0.540667 c 0.0124,0.0213 0.02497,0.04273 0.03691,0.06432 -0.01199,-0.02152 -0.02437,-0.04286 -0.03691,-0.06432 z m 0.109633,0.206152 c 0.01229,0.02505 0.02525,0.04987 0.03631,0.07522 -0.01101,-0.02542 -0.02424,-0.05022 -0.03631,-0.07522 z m 0.05164,0.112498 c 0.02286,0.05574 0.04405,0.112054 0.06012,0.169826 -0.01608,-0.05776 -0.03707,-0.113979 -0.06012,-0.169826 z m 0.08572,0.282305 c 8.61e-4,0.006 0.0014,0.01244 0.0021,0.01858 -7.41e-4,-0.0061 -0.0014,-0.01244 -0.0021,-0.01858 z m 4.886983,4.313771 c -0.0017,0.05729 -0.0033,0.114854 -0.005,0.172179 5.93e-4,-0.0044 -8.69e-4,-0.0095 -3.97e-4,-0.0138 0.0014,-0.05263 0.0044,-0.105532 0.0059,-0.157987 z m -5.73001,-3.50469 c 0.01739,0.01644 0.03297,0.03363 0.04737,0.05176 -0.01435,-0.01784 -0.03015,-0.03544 -0.04737,-0.05176 z m 0.08286,0.103011 c 0.01177,0.01932 0.02107,0.03817 0.02879,0.05817 -0.0084,-0.02049 -0.01767,-0.03937 -0.02879,-0.05817 z m 0.02879,0.05817 c 0.0093,0.02392 0.0165,0.04855 0.02066,0.07391 -0.0047,-0.02575 -0.01135,-0.05006 -0.02066,-0.07391 z M 49.001739,75.01794 c 0,0 -1.82e-4,2.56e-4 -1.82e-4,2.56e-4 -0.02699,0.0017 -0.05382,0.0047 -0.08083,0.0093 0.02645,-0.0049 0.05406,-0.0079 0.08101,-0.0096 z m 0.646304,0.616123 c -0.01098,0.02621 -0.02495,0.05306 -0.03997,0.08137 0.01676,-0.02718 0.03065,-0.0539 0.03997,-0.08137 z m 1.524812,1.410798 c 0.0028,0.0033 0.007,0.0081 0.01127,0.01285 -0.0042,-0.0049 -0.0068,-0.0084 -0.01127,-0.01285 z m 0.06452,0.106577 c 0.01188,0.02527 0.02267,0.0528 0.03338,0.08257 -0.01066,-0.0295 -0.02161,-0.0575 -0.03338,-0.08257 z m 0.04763,0.122091 c 0.01416,0.04466 0.0269,0.09133 0.03635,0.139757 -0.0095,-0.04836 -0.02234,-0.09525 -0.03635,-0.139757 z m -0.234572,-0.150858 c -0.0017,0.0095 -0.0043,0.0204 -0.0049,0.032 0.0023,-0.01037 0.0032,-0.02246 0.0049,-0.032 z m 0.2739,0.311545 c 0.0074,0.04193 0.01255,0.08355 0.01519,0.124691 -0.0026,-0.04091 -0.0077,-0.08288 -0.01519,-0.124691 z m -0.2939,-0.137908 c -0.0018,0.04053 -0.0056,0.124204 -0.0053,0.21199 -5.98e-4,-0.08959 0.0035,-0.170758 0.0053,-0.21199 z m -3.525814,-2.095119 c -2e-6,5.77e-4 7.1e-5,0.001 5e-5,0.0016 -9.21e-4,0.0027 -0.002,0.0057 -0.0032,0.0082 0.0011,-0.0035 0.002,-0.0065 0.0023,-0.01037 z m 1.780152,1.302529 c 0.0027,0.02131 0.0058,0.04176 0.0099,0.06175 -0.0038,-0.01978 -0.0076,-0.04068 -0.0099,-0.06175 z m -1.791739,-1.26336 c -0.0021,0.0102 -0.006,0.0192 -0.0077,0.02883 0.0018,-0.0097 0.0056,-0.01869 0.0077,-0.02883 z m -0.01452,0.06171 c -9.46e-4,0.0085 -0.0038,0.01615 -0.0045,0.02432 7.05e-4,-0.0082 0.0018,-0.01685 0.0045,-0.02432 z m -0.0062,0.05748 c -1.03e-4,0.0073 -3.26e-4,0.01481 -1.87e-4,0.0218 -1.39e-4,-0.007 8.4e-5,-0.01447 1.87e-4,-0.0218 z m 6.36e-4,0.04648 c 9.9e-4,0.0094 0.0021,0.01858 0.0018,0.02624 -0.0014,-0.0089 -0.0025,-0.01807 -0.0018,-0.02624 z m 0.0071,0.05105 c 7.4e-4,0.0061 0.0033,0.01331 0.0042,0.01927 -9.82e-4,-0.0058 -0.0034,-0.01314 -0.0042,-0.01927 z m 0.877704,0.658322 c 0.0013,0.001 0.0031,0.0028 0.003,0.0029 -0.01461,-0.01173 -0.03066,-0.02217 -0.04625,-0.03324 0.01356,0.0096 0.02911,0.01933 0.04254,0.02984 z m -0.08864,-0.06221 c -0.007,-0.0046 -0.0147,-0.008 -0.02076,-0.01169 0.0071,0.0044 0.01476,0.0079 0.02076,0.01169 z M 47.49367,75.50416 c 0.0015,0.0051 0.0047,0.01127 0.0063,0.01622 -0.0016,-0.0049 -0.0049,-0.0111 -0.0063,-0.01622 z m 0.90698,0.650029 c 0.01405,0.01253 0.02756,0.02366 0.03957,0.03653 -0.01151,-0.01251 -0.0265,-0.02443 -0.03957,-0.03653 z m -0.888756,-0.608778 c 0.0034,0.006 0.0052,0.01059 0.0087,0.01641 -0.0035,-0.0058 -0.007,-0.01163 -0.0087,-0.01641 z m 0.02485,0.04111 c 0.0024,0.0039 0.0065,0.0087 0.009,0.01249 -0.0025,-0.0037 -0.0067,-0.0086 -0.009,-0.01249 z m 0.02761,0.03543 c 0.0041,0.005 0.0098,0.01131 0.01422,0.01623 -0.0043,-0.0048 -0.01006,-0.01097 -0.01422,-0.01623 z m 0.02643,0.02847 c 0.01332,0.01355 0.02938,0.02648 0.04468,0.03939 -0.01603,-0.01332 -0.03119,-0.02573 -0.04468,-0.03939 z m 0.103847,0.08424 c -0.0068,-0.0047 -0.01401,-0.009 -0.02087,-0.01405 0.0067,0.0049 0.01383,0.0092 0.02087,0.01405 z m 7.405821,5.303401 c -0.0046,0.02444 -0.0095,0.04562 -0.01631,0.06422 0.0059,-0.01903 0.01063,-0.04008 0.01596,-0.06373 7.5e-5,-1.41e-4 2.92e-4,-3.75e-4 3.65e-4,-5.14e-4 z m -0.02041,0.07717 c -0.0019,0.0055 -0.0048,0.01035 -0.0062,0.01596 0.0021,-0.0051 0.0047,-0.01018 0.0062,-0.01596 z m -0.0121,0.03138 c -0.0021,0.0044 -0.004,0.0089 -0.0065,0.01273 0.0021,-0.0041 0.0041,-0.0086 0.0065,-0.01273 z m -0.02065,0.03625 c -0.0039,0.0054 -0.008,0.0099 -0.01211,0.01435 0.004,-0.0043 0.0083,-0.0092 0.01211,-0.01435 z m -0.01505,0.01759 c -0.0039,0.0039 -0.0079,0.0079 -0.01266,0.01064 0.0042,-0.0032 0.0077,-0.0073 0.01266,-0.01064 z m -0.04736,0.02933 c -0.0039,0.0018 -0.0092,0.0022 -0.0128,0.0037 0.0053,-3.03e-4 0.0091,-0.002 0.0128,-0.0037 z m -0.854893,0.01458 c -0.01097,0.01184 -0.02217,0.02402 -0.0334,0.03624 0.0102,-0.01162 0.02124,-0.02272 0.03162,-0.03373 7.75e-4,-8.03e-4 0.0018,-0.0012 0.0026,-0.002 z m -0.04186,0.04456 c -0.0099,0.01181 -0.01914,0.02475 -0.02853,0.03743 0.0093,-0.01278 0.01855,-0.02557 0.02853,-0.03743 z m -0.03767,0.04943 c -0.02403,0.03436 -0.04569,0.07149 -0.0658,0.11055 0.02009,-0.03904 0.0415,-0.07636 0.0658,-0.11055 z m -0.115965,0.238584 c -0.0036,0.0087 -0.0055,0.01852 -0.0091,0.02713 5.58e-4,-0.0016 8.92e-4,-0.0034 0.0014,-0.0051 0.0013,-0.0042 0.003,-0.0078 0.0037,-0.01241 10e-4,-0.0033 0.0027,-0.0062 0.0042,-0.0095 z m -4.191518,-2.459855 c 0.06497,0.10486 0.132439,0.217333 0.194114,0.323497 -0.06296,-0.108405 -0.127776,-0.216468 -0.194114,-0.323497 z m 4.861667,3.756397 c -1.54e-4,-3.5e-5 -5.55e-4,-9e-6 -6.9e-4,-1.05e-4 -0.03001,-0.01698 -0.06334,-0.03251 -0.09692,-0.0477 0.03375,0.01531 0.06737,0.03078 0.09755,0.04789 z m -0.252135,-0.111242 c -0.0453,-0.01663 -0.07957,-0.02797 -0.123883,-0.04276 -6.55e-4,-4.42e-4 -0.0015,-6.93e-4 -0.0019,-9.46e-4 0.04157,0.01398 0.08381,0.02846 0.126098,0.04395 z m 0.445649,0.432426 c -0.0059,0.01903 -0.0147,0.03864 -0.02652,0.05885 0.01187,-0.02015 0.0206,-0.03975 0.02652,-0.05885 z m -0.0267,0.05911 c -0.01863,0.02981 -0.04253,0.06229 -0.07525,0.09514 0.03163,-0.03375 0.0566,-0.0653 0.07525,-0.09514 z m -3.562833,-1.925664 c -0.0041,0.03807 -0.0054,0.07365 -0.0047,0.107522 -0.0011,-0.03429 5.99e-4,-0.06939 0.0047,-0.107522 z m -0.0025,0.13555 c 0.0017,0.02266 0.0032,0.04437 0.0066,0.06503 -0.0033,-0.02046 -0.0051,-0.04264 -0.0066,-0.06503 z m 2.898994,2.183103 c -0.02976,0.0038 -0.06007,0.0049 -0.09023,0.0064 0.03015,-0.0015 0.06044,-0.0025 0.09023,-0.0064 z m -1.965322,-1.393323 c 0.03136,0.0219 0.06071,0.04555 0.08733,0.07123 -0.02686,-0.02572 -0.05621,-0.04937 -0.08733,-0.07123 z m -0.811582,-0.472145 c 0.01103,0.01319 0.02317,0.02589 0.03566,0.03809 -0.01199,-0.01184 -0.02435,-0.02495 -0.03566,-0.03809 z m 0.05257,0.0552 c 0.0155,0.01407 0.0302,0.02604 0.04615,0.0384 -0.01649,-0.01268 -0.03167,-0.02505 -0.04615,-0.0384 z m 2.393246,1.807164 c -0.07715,-0.0098 -0.154282,-0.02402 -0.231092,-0.04425 3.45e-4,5.3e-5 7.82e-4,-2.4e-5 0.0011,2.8e-5 0.07648,0.02012 0.153258,0.03444 0.229986,0.04423 z m -1.388369,-0.934426 c 0.0025,0.02873 0.0061,0.05605 0.012,0.08359 -0.006,-0.02746 -0.01,-0.05524 -0.012,-0.08359 z m 1.485745,1.441882 c -0.07311,-0.0098 -0.146356,-0.02872 -0.219181,-0.05728 0.0728,0.02852 0.14621,0.04758 0.219181,0.05728 z"
     style="fill:#ffffff;stroke-width:0.157431"
     id="path21" /><path
     style="fill:#232323;fill-opacity:1;stroke-width:0.157431"
     d="m 54.124224,73.493148 c -0.235802,-0.162185 -0.436516,0.23773 -0.668561,0.593568 -0.165621,0.123285 -0.286344,0.265562 -0.37537,0.422801 -0.03404,0.01919 -0.06801,0.03435 -0.103323,0.04314 -0.575097,0.141692 -0.149055,1.164751 -0.167524,1.750338 -0.0168,0.532853 0.133674,1.433581 -0.248056,1.739512 -0.221909,-0.05789 -0.297513,-0.297188 -0.3261,-0.567775 -0.0129,-0.122528 -0.01609,-0.251528 -0.01902,-0.372979 -0.0085,-0.362264 -0.01319,-0.657118 -0.259104,-0.513385 -0.03092,0.0184 -0.05948,0.03814 -0.08493,0.0596 -0.01027,9.8e-5 -0.01896,0.0016 -0.02904,0.0028 -0.600577,0.07847 -0.02403,1.398515 -0.749228,1.575794 -0.04566,0.01116 -0.08637,0.01821 -0.122453,0.02162 -0.138883,-0.06902 -0.125734,-0.409761 -0.247088,-0.691182 -0.07414,-0.171984 -0.184083,-0.217105 -0.319167,-0.231361 -0.351612,-0.127381 -0.689694,-0.247928 -1.055936,-0.276878 -0.129031,-0.03839 -0.24474,-0.05196 -0.304182,-0.0019 -0.02657,0.0015 -0.05281,0.0043 -0.07941,0.0073 -0.233703,0.02567 0.379866,0.826501 0.569002,1.166588 0.396047,0.712143 0.808318,1.386163 1.337757,1.994182 0.480954,0.55234 0.673127,1.252014 1.25109,1.689316 0.09256,0.05455 0.168446,0.126822 0.235014,0.208083 0.04481,0.06433 0.08819,0.129954 0.129953,0.197183 0.216507,0.34897 0.474445,0.760569 0.919099,0.803904 0.04303,0.01731 0.08696,0.033 0.130842,0.04732 0.177822,0.108241 0.455771,0.163522 0.557331,0.102154 0.341035,-0.0033 -0.187782,-0.306785 -0.316523,-0.513821 -0.04156,-0.06676 -0.07256,-0.136162 -0.0949,-0.207363 -0.0083,-0.02424 -0.01413,-0.04758 -0.01969,-0.07169 -0.0641,-0.326367 0.04691,-0.705509 0.131148,-1.044052 0.03754,-0.115636 0.07669,-0.227798 0.11079,-0.333932 0.009,-0.02696 0.01857,-0.05126 0.02892,-0.073 0.212488,-0.216523 0.707592,-0.06023 0.749613,-0.206691 5.23e-4,-0.0021 0.0013,-0.0042 0.0019,-0.0063 0.02135,-0.01928 0.03961,-0.04498 0.05709,-0.07676 0.693537,-1.292997 0.329825,-2.8888 0.09126,-4.397724 -0.03859,-0.844626 -0.14883,-1.679467 -0.425881,-2.475974 -0.04883,-0.140491 -0.100529,-0.223882 -0.155834,-0.26537 -0.01743,-0.01315 -0.0355,-0.02217 -0.05381,-0.02727 -0.02547,-0.02983 -0.05051,-0.05272 -0.07498,-0.0696 z"
     id="path28" /><path
     style="fill:#232323;fill-opacity:1;stroke-width:0.157431"
     d="M 15.24698,9.667706 C 14.849837,9.368448 14.276877,9.14614 13.777294,8.918818 12.928423,8.349217 12.044228,7.833027 11.148338,7.340979 c -0.02383,-0.01311 -0.04834,-0.02491 -0.07294,-0.03551 -0.0015,-8.86e-4 -0.0035,-0.0023 -0.0053,-0.0034 C 10.618335,7.036801 10.049296,6.880103 9.5227478,6.981564 9.1120618,7.060704 8.9813308,7.093689 8.7184338,6.853291 8.4130628,6.574054 8.1561108,6.252113 7.8762668,5.95543 7.8286768,5.84262 7.7291468,5.754057 7.6114948,5.692621 c -0.05272,-0.04817 -0.10704,-0.09518 -0.162886,-0.14021 -0.195541,-0.04347 -0.308638,-0.0165 -0.36657,0.05563 -0.164189,0.0434 -0.234302,0.17868 -0.04126,0.420676 0.01513,0.01891 0.02902,0.03847 0.04172,0.05792 0.03639,0.129301 0.0868,0.266603 0.13278,0.394965 0.0457,0.389802 -0.06976,0.811518 0.176311,1.0939 0.388201,0.445488 0.826119,0.853445 0.916934,1.496025 0.109523,0.774872 0.628175,1.360966 1.205404,1.828478 0.03627,0.02934 0.07208,0.04713 0.119697,0.04506 0.5992262,-0.212257 -0.132621,-0.430214 0.218342,-1.121661 0.0091,-0.01645 0.01649,-0.03398 0.02546,-0.05019 0.06749,-0.08423 0.1315752,-0.178006 0.1943662,-0.2704 0.208114,-0.217544 0.487571,-0.323404 0.877826,-0.320786 0.749295,0.005 1.448262,0.328689 2.044866,0.758489 0.771127,0.428025 1.623545,1.304675 2.450022,1.016935 0.08465,-0.01363 0.15646,-0.0519 0.207544,-0.124871 0.02866,-0.03316 0.04479,-0.07022 0.05198,-0.109046 0.01049,-0.03271 0.0184,-0.06931 0.02392,-0.110111 0.05361,-0.399162 -0.154571,-0.699555 -0.483134,-0.947157 z"
     id="path23" /></svg>
